<?xml version="1.0" encoding="iso-8859-1"?>
<!-- Generator: Adobe Illustrator 18.1.1, SVG Export Plug-In . SVG Version: 6.00 Build 0)  -->
<svg version="1.1" id="Capa_1" xmlns="http://www.w3.org/2000/svg" xmlns:xlink="http://www.w3.org/1999/xlink" x="0px" y="0px"
	 viewBox="0 0 612 612" style="enable-background:new 0 0 612 612;" xml:space="preserve">
<g>
	<g>
		<g>
			<polygon points="480.306,0 93.35,106.127 519.492,106.127 			"/>
			<polygon points="480.306,0 93.35,106.127 519.492,106.127 			"/>
		</g>
		<g>
			<path d="M441.078,288.991c-21.545,0-40.78,20.593-40.78,42.146v91.432c0,21.545,19.234,36.226,40.78,36.226h161.677V288.991
				H441.078z M473.738,406.273c-16.233,0-29.39-13.156-29.39-29.39c0-16.233,13.156-29.39,29.39-29.39
				c16.233,0,29.396,13.156,29.396,29.39C503.128,393.117,489.971,406.273,473.738,406.273z"/>
			<path d="M441.078,288.991c-21.545,0-40.78,20.593-40.78,42.146v91.432c0,21.545,19.234,36.226,40.78,36.226h161.677V288.991
				H441.078z M473.738,406.273c-16.233,0-29.39-13.156-29.39-29.39c0-16.233,13.156-29.39,29.39-29.39
				c16.233,0,29.396,13.156,29.396,29.39C503.128,393.117,489.971,406.273,473.738,406.273z"/>
		</g>
		<g>
			<path d="M543.976,494.711c0,3.608-2.925,6.533-6.526,6.533c-3.608,0-6.533-2.925-6.533-6.533v-13.06h-90.632
				c-36.013,0-66.106-26.306-66.106-62.311v-91.439c0-36.013,30.093-68.3,66.106-68.3h90.632v-6.526
				c0-3.608,2.925-6.533,6.533-6.533c3.601,0,6.526,2.925,6.526,6.533v6.526h33.453v-85.175c0-21.552-17.634-39.186-39.186-39.186
				H48.431c-19.421,0-35.612,14.329-38.641,32.922h11.714c3.608,0,6.526,2.925,6.526,6.533c0,3.608-2.918,6.533-6.526,6.533H9.245
				V566.55h5.74c3.608,0,6.526,2.925,6.526,6.533s-2.925,6.533-6.526,6.533H9.879C13.129,597.947,29.196,612,48.431,612h489.812
				c21.552,0,39.186-17.634,39.186-39.186v-91.163h-33.453V494.711z M517.857,168.169h26.12v26.126c0,3.608-2.925,6.533-6.526,6.533
				c-3.608,0-6.533-2.925-6.533-6.533v-13.06h-13.06c-3.608,0-6.533-2.925-6.533-6.533
				C511.323,171.094,514.249,168.169,517.857,168.169z M432.958,168.169h45.713c3.608,0,6.533,2.925,6.533,6.533
				c0,3.608-2.925,6.533-6.533,6.533h-45.713c-3.608,0-6.533-2.925-6.533-6.533C426.418,171.094,429.343,168.169,432.958,168.169z
				 M341.526,168.169h45.713c3.608,0,6.533,2.925,6.533,6.533c0,3.608-2.925,6.533-6.533,6.533h-45.713
				c-3.615,0-6.533-2.925-6.533-6.533C334.986,171.094,337.911,168.169,341.526,168.169z M106.417,579.616H60.697
				c-3.608,0-6.526-2.925-6.526-6.533c0-3.608,2.918-6.533,6.526-6.533h45.719c3.608,0,6.526,2.925,6.526,6.533
				S110.025,579.616,106.417,579.616z M112.943,181.236H67.23c-3.608,0-6.533-2.925-6.533-6.533c0-3.608,2.925-6.533,6.533-6.533
				h45.713c3.615,0,6.526,2.925,6.526,6.533C119.469,178.311,116.551,181.236,112.943,181.236z M197.842,579.616h-45.719
				c-3.601,0-6.526-2.925-6.526-6.533c0-3.608,2.925-6.533,6.526-6.533h45.719c3.608,0,6.526,2.925,6.526,6.533
				C204.375,576.691,201.457,579.616,197.842,579.616z M204.375,181.236h-45.713c-3.608,0-6.533-2.925-6.533-6.533
				c0-3.608,2.925-6.533,6.533-6.533h45.713c3.608,0,6.533,2.925,6.533,6.533C210.908,178.311,207.983,181.236,204.375,181.236z
				 M289.273,579.616h-45.719c-3.601,0-6.526-2.925-6.526-6.533c0-3.608,2.925-6.533,6.526-6.533h45.719
				c3.608,0,6.526,2.925,6.526,6.533C295.807,576.691,292.889,579.616,289.273,579.616z M295.807,181.236h-45.713
				c-3.608,0-6.533-2.925-6.533-6.533c0-3.608,2.925-6.533,6.533-6.533h45.713c3.608,0,6.533,2.925,6.533,6.533
				C302.34,178.311,299.415,181.236,295.807,181.236z M380.705,579.616h-45.719c-3.601,0-6.526-2.925-6.526-6.533
				c0-3.608,2.925-6.533,6.526-6.533h45.719c3.608,0,6.526,2.925,6.526,6.533C387.239,576.691,384.32,579.616,380.705,579.616z
				 M472.137,579.616h-45.719c-3.601,0-6.526-2.925-6.526-6.533c0-3.608,2.925-6.533,6.526-6.533h45.719
				c3.608,0,6.526,2.925,6.526,6.533C478.671,576.691,475.752,579.616,472.137,579.616z M543.976,579.616h-26.12
				c-3.608,0-6.533-2.925-6.533-6.533c0-3.608,2.925-6.533,6.533-6.533h13.06v-19.593c0-3.608,2.925-6.533,6.533-6.533
				c3.601,0,6.526,2.925,6.526,6.533L543.976,579.616L543.976,579.616z"/>
			<path d="M543.976,494.711c0,3.608-2.925,6.533-6.526,6.533c-3.608,0-6.533-2.925-6.533-6.533v-13.06h-90.632
				c-36.013,0-66.106-26.306-66.106-62.311v-91.439c0-36.013,30.093-68.3,66.106-68.3h90.632v-6.526
				c0-3.608,2.925-6.533,6.533-6.533c3.601,0,6.526,2.925,6.526,6.533v6.526h33.453v-85.175c0-21.552-17.634-39.186-39.186-39.186
				H48.431c-19.421,0-35.612,14.329-38.641,32.922h11.714c3.608,0,6.526,2.925,6.526,6.533c0,3.608-2.918,6.533-6.526,6.533H9.245
				V566.55h5.74c3.608,0,6.526,2.925,6.526,6.533s-2.925,6.533-6.526,6.533H9.879C13.129,597.947,29.196,612,48.431,612h489.812
				c21.552,0,39.186-17.634,39.186-39.186v-91.163h-33.453V494.711z M517.857,168.169h26.12v26.126c0,3.608-2.925,6.533-6.526,6.533
				c-3.608,0-6.533-2.925-6.533-6.533v-13.06h-13.06c-3.608,0-6.533-2.925-6.533-6.533
				C511.323,171.094,514.249,168.169,517.857,168.169z M432.958,168.169h45.713c3.608,0,6.533,2.925,6.533,6.533
				c0,3.608-2.925,6.533-6.533,6.533h-45.713c-3.608,0-6.533-2.925-6.533-6.533C426.418,171.094,429.343,168.169,432.958,168.169z
				 M341.526,168.169h45.713c3.608,0,6.533,2.925,6.533,6.533c0,3.608-2.925,6.533-6.533,6.533h-45.713
				c-3.615,0-6.533-2.925-6.533-6.533C334.986,171.094,337.911,168.169,341.526,168.169z M106.417,579.616H60.697
				c-3.608,0-6.526-2.925-6.526-6.533c0-3.608,2.918-6.533,6.526-6.533h45.719c3.608,0,6.526,2.925,6.526,6.533
				S110.025,579.616,106.417,579.616z M112.943,181.236H67.23c-3.608,0-6.533-2.925-6.533-6.533c0-3.608,2.925-6.533,6.533-6.533
				h45.713c3.615,0,6.526,2.925,6.526,6.533C119.469,178.311,116.551,181.236,112.943,181.236z M197.842,579.616h-45.719
				c-3.601,0-6.526-2.925-6.526-6.533c0-3.608,2.925-6.533,6.526-6.533h45.719c3.608,0,6.526,2.925,6.526,6.533
				C204.375,576.691,201.457,579.616,197.842,579.616z M204.375,181.236h-45.713c-3.608,0-6.533-2.925-6.533-6.533
				c0-3.608,2.925-6.533,6.533-6.533h45.713c3.608,0,6.533,2.925,6.533,6.533C210.908,178.311,207.983,181.236,204.375,181.236z
				 M289.273,579.616h-45.719c-3.601,0-6.526-2.925-6.526-6.533c0-3.608,2.925-6.533,6.526-6.533h45.719
				c3.608,0,6.526,2.925,6.526,6.533C295.807,576.691,292.889,579.616,289.273,579.616z M295.807,181.236h-45.713
				c-3.608,0-6.533-2.925-6.533-6.533c0-3.608,2.925-6.533,6.533-6.533h45.713c3.608,0,6.533,2.925,6.533,6.533
				C302.34,178.311,299.415,181.236,295.807,181.236z M380.705,579.616h-45.719c-3.601,0-6.526-2.925-6.526-6.533
				c0-3.608,2.925-6.533,6.526-6.533h45.719c3.608,0,6.526,2.925,6.526,6.533C387.239,576.691,384.32,579.616,380.705,579.616z
				 M472.137,579.616h-45.719c-3.601,0-6.526-2.925-6.526-6.533c0-3.608,2.925-6.533,6.526-6.533h45.719
				c3.608,0,6.526,2.925,6.526,6.533C478.671,576.691,475.752,579.616,472.137,579.616z M543.976,579.616h-26.12
				c-3.608,0-6.533-2.925-6.533-6.533c0-3.608,2.925-6.533,6.533-6.533h13.06v-19.593c0-3.608,2.925-6.533,6.533-6.533
				c3.601,0,6.526,2.925,6.526,6.533L543.976,579.616L543.976,579.616z"/>
		</g>
	</g>
</g>
<g>
</g>
<g>
</g>
<g>
</g>
<g>
</g>
<g>
</g>
<g>
</g>
<g>
</g>
<g>
</g>
<g>
</g>
<g>
</g>
<g>
</g>
<g>
</g>
<g>
</g>
<g>
</g>
<g>
</g>
</svg>
