<?xml version="1.0" encoding="iso-8859-1"?>
<!-- Generator: Adobe Illustrator 19.0.0, SVG Export Plug-In . SVG Version: 6.00 Build 0)  -->
<svg version="1.1" id="Layer_1" xmlns="http://www.w3.org/2000/svg" xmlns:xlink="http://www.w3.org/1999/xlink" x="0px" y="0px"
	 viewBox="0 0 455 455" style="enable-background:new 0 0 455 455;" xml:space="preserve">
<g>
	<path d="M227.5,304.326c84.037,0,152.163-68.126,152.163-152.163S311.537,0,227.5,0S75.337,68.126,75.337,152.163
		S143.463,304.326,227.5,304.326z M162.061,156.663h7.341v-9h-6.781v-30h6.781v-10.617c0-32.036,26.063-58.098,58.099-58.098
		s58.099,26.063,58.099,58.098h-30c0-15.493-12.605-28.098-28.099-28.098s-28.099,12.605-28.099,28.098v10.617h51.197v30h-51.197v9
		h51.197v30h-51.197v10.618c0,15.493,12.605,28.098,28.099,28.098s28.099-12.605,28.099-28.098h30
		c0,32.036-26.063,58.098-58.099,58.098s-58.099-26.063-58.099-58.098v-10.618h-7.341V156.663z"/>
	<path d="M227.5,409.663c-61.799,0-116.499-30.94-149.45-78.136C91.469,401.846,153.272,455,227.5,455
		s136.031-53.154,149.45-123.473C343.999,378.723,289.299,409.663,227.5,409.663z"/>
	<path d="M227.5,334.326c-61.799,0-116.499-30.94-149.45-78.135c13.419,70.319,75.222,123.473,149.45,123.473
		s136.031-53.154,149.45-123.473C343.999,303.386,289.299,334.326,227.5,334.326z"/>
</g>
<g>
</g>
<g>
</g>
<g>
</g>
<g>
</g>
<g>
</g>
<g>
</g>
<g>
</g>
<g>
</g>
<g>
</g>
<g>
</g>
<g>
</g>
<g>
</g>
<g>
</g>
<g>
</g>
<g>
</g>
</svg>
